<?xml version="1.0" encoding="UTF-8" standalone="no"?>
<!-- Created with Inkscape (http://www.inkscape.org/) -->
<svg
   xmlns:svg="http://www.w3.org/2000/svg"
   xmlns="http://www.w3.org/2000/svg"
   version="1.0"
   x="0.00000000"
   y="0.00000000"
   width="525.00000"
   height="182.00000"
   id="svg2">
  <defs
     id="defs4" />
  <rect
     width="74.488884"
     height="15.214283"
     x="432.28659"
     y="42.774319"
     style="fill:#0000ff;fill-rule:evenodd;stroke:#000000;stroke-width:0.99218661;stroke-linecap:butt;stroke-linejoin:miter;stroke-miterlimit:4.0000000;stroke-dasharray:none;stroke-opacity:1.0000000"
     id="rect1872" />
  <rect
     width="232.82378"
     height="15.239477"
     x="199.46452"
     y="42.761726"
     style="fill:#ff0000;stroke:#000000;stroke-width:1.0000000;stroke-miterlimit:4.0000000;stroke-dasharray:none;stroke-opacity:1.0000000"
     id="rect1874" />
  <path
     d="M 1.4646883,3.7844969 L 10.823253,3.7844969 L 10.823253,5.0681371 L 6.8960639,5.0681371 L 6.8960639,15.057878 L 5.3918766,15.057878 L 5.3918766,5.0681371 L 1.4646883,5.0681371 L 1.4646883,3.7844969 M 8.9041168,6.6009545 L 10.267518,6.6009545 L 11.971770,13.200375 L 13.668612,6.6009545 L 15.276536,6.6009545 L 16.980787,13.200375 L 18.677629,6.6009545 L 20.041031,6.6009545 L 17.869962,15.057878 L 16.262038,15.057878 L 14.476279,8.1262209 L 12.683109,15.057878 L 11.075185,15.057878 L 8.9041168,6.6009545 M 25.331621,7.5750108 C 24.600517,7.5750182 24.022554,7.8669832 23.597730,8.4509064 C 23.172899,9.0298090 22.960486,9.8251617 22.960488,10.836967 C 22.960486,11.848781 23.170430,12.646650 23.590320,13.230578 C 24.015145,13.809476 24.595578,14.098924 25.331621,14.098923 C 26.057775,14.098924 26.633268,13.806959 27.058101,13.223027 C 27.482922,12.639099 27.695336,11.843746 27.695343,10.836967 C 27.695336,9.8352295 27.482922,9.0423937 27.058101,8.4584572 C 26.633268,7.8695001 26.057775,7.5750182 25.331621,7.5750108 M 25.331621,6.3970822 C 26.517182,6.3970909 27.448344,6.7897333 28.125111,7.5750108 C 28.801864,8.3603033 29.140244,9.4476209 29.140252,10.836967 C 29.140244,12.221288 28.801864,13.308605 28.125111,14.098923 C 27.448344,14.884209 26.517182,15.276852 25.331621,15.276852 C 24.141111,15.276852 23.207479,14.884209 22.530720,14.098923 C 21.858898,13.308605 21.522988,12.221288 21.522989,10.836967 C 21.522988,9.4476209 21.858898,8.3603033 22.530720,7.5750108 C 23.207479,6.7897333 24.141111,6.3970909 25.331621,6.3970822 M 36.224012,6.6009545 L 37.587413,6.6009545 L 37.587413,15.057878 L 36.224012,15.057878 L 36.224012,6.6009545 M 36.224012,3.3087950 L 37.587413,3.3087950 L 37.587413,5.0681371 L 36.224012,5.0681371 L 36.224012,3.3087950 M 47.331283,9.9535205 L 47.331283,15.057878 L 45.967882,15.057878 L 45.967882,9.9988254 C 45.967875,9.1984439 45.814740,8.5994124 45.508475,8.2017292 C 45.202197,7.8040598 44.742791,7.6052215 44.130255,7.6052141 C 43.394210,7.6052215 42.813778,7.8443307 42.388954,8.3225424 C 41.964123,8.8007675 41.751709,9.4526547 41.751712,10.278206 L 41.751712,15.057878 L 40.380901,15.057878 L 40.380901,6.6009545 L 41.751712,6.6009545 L 41.751712,7.9147979 C 42.077740,7.4063834 42.460579,7.0263256 42.900229,6.7746234 C 43.344812,6.5229378 43.856088,6.3970909 44.434056,6.3970822 C 45.387442,6.3970909 46.108662,6.6991235 46.597714,7.3031811 C 47.086752,7.9022203 47.331275,8.7856659 47.331283,9.9535205 M 55.526513,7.8845946 L 55.526513,3.3087950 L 56.889914,3.3087950 L 56.889914,15.057878 L 55.526513,15.057878 L 55.526513,13.789339 C 55.239995,14.292728 54.876915,14.667752 54.437274,14.914412 C 54.002561,15.156038 53.478936,15.276852 52.866398,15.276852 C 51.863603,15.276852 51.046058,14.869108 50.413758,14.053618 C 49.786395,13.238131 49.472714,12.165915 49.472715,10.836967 C 49.472714,9.5080274 49.786395,8.4358114 50.413758,7.6203158 C 51.046058,6.8048349 51.863603,6.3970909 52.866398,6.3970822 C 53.478936,6.3970909 54.002561,6.5204208 54.437274,6.7670726 C 54.876915,7.0087070 55.239995,7.3812139 55.526513,7.8845946 M 50.880575,10.836967 C 50.880573,11.858848 51.085577,12.661752 51.495587,13.245680 C 51.910532,13.824578 52.478615,14.114026 53.199839,14.114025 C 53.921054,14.114026 54.489137,13.824578 54.904090,13.245680 C 55.319032,12.661752 55.526506,11.858848 55.526513,10.836967 C 55.526506,9.8150939 55.319032,9.0147073 54.904090,8.4358048 C 54.489137,7.8518816 53.921054,7.5599166 53.199839,7.5599092 C 52.478615,7.5599166 51.910532,7.8518816 51.495587,8.4358048 C 51.085577,9.0147073 50.880573,9.8150939 50.880575,10.836967 M 66.796801,10.482079 L 66.796801,11.161652 L 60.528119,11.161652 C 60.587395,12.118094 60.868967,12.848005 61.372835,13.351392 C 61.881637,13.849747 62.588036,14.098924 63.492034,14.098923 C 64.015655,14.098924 64.521990,14.033484 65.011042,13.902602 C 65.505021,13.771722 65.994066,13.575401 66.478180,13.313637 L 66.478180,14.627480 C 65.989126,14.838904 65.487731,14.999988 64.973992,15.110734 C 64.460242,15.221479 63.939087,15.276852 63.410527,15.276852 C 62.086641,15.276852 61.036922,14.884209 60.261367,14.098923 C 59.490747,13.313640 59.105439,12.251491 59.105440,10.912475 C 59.105439,9.5281629 59.470988,8.4307775 60.202088,7.6203158 C 60.938125,6.8048349 61.928565,6.3970909 63.173414,6.3970822 C 64.289816,6.3970909 65.171580,6.7645639 65.818708,7.4995026 C 66.470762,8.2294224 66.796792,9.2236133 66.796801,10.482079 M 65.433400,10.074334 C 65.423513,9.3142231 65.213569,8.7076408 64.803568,8.2545850 C 64.398493,7.8015427 63.860049,7.5750182 63.188234,7.5750108 C 62.427491,7.5750182 61.817419,7.7939920 61.358016,8.2319325 C 60.903546,8.6698867 60.641733,9.2865367 60.572578,10.081884 L 65.433400,10.074334 M 70.353499,13.789339 L 70.353499,18.274529 L 68.982688,18.274529 L 68.982688,6.6009545 L 70.353499,6.6009545 L 70.353499,7.8845946 C 70.640008,7.3812139 71.000617,7.0087070 71.435329,6.7670726 C 71.874971,6.5204208 72.398597,6.3970909 73.006203,6.3970822 C 74.013928,6.3970909 74.831475,6.8048349 75.458844,7.6203158 C 76.091137,8.4358114 76.407289,9.5080274 76.407298,10.836967 C 76.407289,12.165915 76.091137,13.238131 75.458844,14.053618 C 74.831475,14.869108 74.013928,15.276852 73.006203,15.276852 C 72.398597,15.276852 71.874971,15.156038 71.435329,14.914412 C 71.000617,14.667752 70.640008,14.292728 70.353499,13.789339 M 74.992027,10.836967 C 74.992020,9.8150939 74.784546,9.0147073 74.369605,8.4358048 C 73.959590,7.8518816 73.393977,7.5599166 72.672764,7.5599092 C 71.951539,7.5599166 71.383456,7.8518816 70.968512,8.4358048 C 70.558501,9.0147073 70.353497,9.8150939 70.353499,10.836967 C 70.353497,11.858848 70.558501,12.661752 70.968512,13.245680 C 71.383456,13.824578 71.951539,14.114026 72.672764,14.114025 C 73.393977,14.114026 73.959590,13.824578 74.369605,13.245680 C 74.784546,12.661752 74.992020,11.858848 74.992027,10.836967 M 85.765863,10.482079 L 85.765863,11.161652 L 79.497182,11.161652 C 79.556457,12.118094 79.838029,12.848005 80.341898,13.351392 C 80.850699,13.849747 81.557098,14.098924 82.461098,14.098923 C 82.984717,14.098924 83.491052,14.033484 83.980104,13.902602 C 84.474083,13.771722 84.963129,13.575401 85.447242,13.313637 L 85.447242,14.627480 C 84.958189,14.838904 84.456794,14.999988 83.943055,15.110734 C 83.429304,15.221479 82.908149,15.276852 82.379590,15.276852 C 81.055704,15.276852 80.005984,14.884209 79.230429,14.098923 C 78.459810,13.313640 78.074501,12.251491 78.074502,10.912475 C 78.074501,9.5281629 78.440051,8.4307775 79.171151,7.6203158 C 79.907187,6.8048349 80.897628,6.3970909 82.142477,6.3970822 C 83.258878,6.3970909 84.140642,6.7645639 84.787771,7.4995026 C 85.439825,8.2294224 85.765855,9.2236133 85.765863,10.482079 M 84.402462,10.074334 C 84.392575,9.3142231 84.182632,8.7076408 83.772630,8.2545850 C 83.367556,7.8015427 82.829111,7.5750182 82.157296,7.5750108 C 81.396553,7.5750182 80.786482,7.7939920 80.327078,8.2319325 C 79.872609,8.6698867 79.610796,9.2865367 79.541641,10.081884 L 84.402462,10.074334 M 94.902133,9.9535205 L 94.902133,15.057878 L 93.538732,15.057878 L 93.538732,9.9988254 C 93.538725,9.1984439 93.385589,8.5994124 93.079325,8.2017292 C 92.773047,7.8040598 92.313641,7.6052215 91.701104,7.6052141 C 90.965060,7.6052215 90.384628,7.8443307 89.959804,8.3225424 C 89.534973,8.8007675 89.322559,9.4526547 89.322562,10.278206 L 89.322562,15.057878 L 87.951751,15.057878 L 87.951751,6.6009545 L 89.322562,6.6009545 L 89.322562,7.9147979 C 89.648589,7.4063834 90.031428,7.0263256 90.471079,6.7746234 C 90.915662,6.5229378 91.426937,6.3970909 92.004905,6.3970822 C 92.958292,6.3970909 93.679510,6.6991235 94.168564,7.3031811 C 94.657602,7.9022203 94.902125,8.7856659 94.902133,9.9535205 M 103.09736,7.8845946 L 103.09736,3.3087950 L 104.46076,3.3087950 L 104.46076,15.057878 L 103.09736,15.057878 L 103.09736,13.789339 C 102.81085,14.292728 102.44777,14.667752 102.00812,14.914412 C 101.57341,15.156038 101.04979,15.276852 100.43725,15.276852 C 99.434449,15.276852 98.616907,14.869108 97.984608,14.053618 C 97.357244,13.238131 97.043564,12.165915 97.043565,10.836967 C 97.043564,9.5080274 97.357244,8.4358114 97.984608,7.6203158 C 98.616907,6.8048349 99.434449,6.3970909 100.43725,6.3970822 C 101.04979,6.3970909 101.57341,6.5204208 102.00812,6.7670726 C 102.44777,7.0087070 102.81085,7.3812139 103.09736,7.8845946 M 98.451424,10.836967 C 98.451422,11.858848 98.656426,12.661752 99.066435,13.245680 C 99.481385,13.824578 100.04946,14.114026 100.77069,14.114025 C 101.49190,14.114026 102.05999,13.824578 102.47494,13.245680 C 102.88988,12.661752 103.09735,11.858848 103.09736,10.836967 C 103.09735,9.8150939 102.88988,9.0147073 102.47494,8.4358048 C 102.05999,7.8518816 101.49190,7.5599166 100.77069,7.5599092 C 100.04946,7.5599166 99.481385,7.8518816 99.066435,8.4358048 C 98.656426,9.0147073 98.451422,9.8150939 98.451424,10.836967 M 114.36765,10.482079 L 114.36765,11.161652 L 108.09897,11.161652 C 108.15825,12.118094 108.43982,12.848005 108.94369,13.351392 C 109.45249,13.849747 110.15889,14.098924 111.06289,14.098923 C 111.58651,14.098924 112.09284,14.033484 112.58190,13.902602 C 113.07587,13.771722 113.56492,13.575401 114.04903,13.313637 L 114.04903,14.627480 C 113.55998,14.838904 113.05858,14.999988 112.54485,15.110734 C 112.03110,15.221479 111.50994,15.276852 110.98138,15.276852 C 109.65750,15.276852 108.60777,14.884209 107.83222,14.098923 C 107.06160,13.313640 106.67630,12.251491 106.67630,10.912475 C 106.67630,9.5281629 107.04184,8.4307775 107.77294,7.6203158 C 108.50898,6.8048349 109.49942,6.3970909 110.74426,6.3970822 C 111.86067,6.3970909 112.74244,6.7645639 113.38956,7.4995026 C 114.04161,8.2294224 114.36764,9.2236133 114.36765,10.482079 M 113.00426,10.074334 C 112.99436,9.3142231 112.78442,8.7076408 112.37442,8.2545850 C 111.96935,7.8015427 111.43090,7.5750182 110.75908,7.5750108 C 109.99834,7.5750182 109.38827,7.7939920 108.92887,8.2319325 C 108.47440,8.6698867 108.21258,9.2865367 108.14343,10.081884 L 113.00426,10.074334 M 123.50393,9.9535205 L 123.50393,15.057878 L 122.14052,15.057878 L 122.14052,9.9988254 C 122.14052,9.1984439 121.98738,8.5994124 121.68111,8.2017292 C 121.37484,7.8040598 120.91543,7.6052215 120.30290,7.6052141 C 119.56685,7.6052215 118.98642,7.8443307 118.56160,8.3225424 C 118.13676,8.8007675 117.92435,9.4526547 117.92436,10.278206 L 117.92436,15.057878 L 116.55354,15.057878 L 116.55354,6.6009545 L 117.92436,6.6009545 L 117.92436,7.9147979 C 118.25038,7.4063834 118.63322,7.0263256 119.07287,6.7746234 C 119.51746,6.5229378 120.02873,6.3970909 120.60670,6.3970822 C 121.56008,6.3970909 122.28130,6.6991235 122.77035,7.3031811 C 123.25939,7.9022203 123.50392,8.7856659 123.50393,9.9535205 M 127.58671,4.1997923 L 127.58671,6.6009545 L 130.39502,6.6009545 L 130.39502,7.6807224 L 127.58671,7.6807224 L 127.58671,12.271623 C 127.58671,12.961267 127.67810,13.404249 127.86088,13.600569 C 128.04859,13.796891 128.42648,13.895052 128.99457,13.895051 L 130.39502,13.895051 L 130.39502,15.057878 L 128.99457,15.057878 C 127.94238,15.057878 127.21622,14.859039 126.81609,14.461363 C 126.41596,14.058653 126.21590,13.328740 126.21590,12.271623 L 126.21590,7.6807224 L 125.21558,7.6807224 L 125.21558,6.6009545 L 126.21590,6.6009545 L 126.21590,4.1997923 L 127.58671,4.1997923 M 138.34573,13.789339 L 138.34573,18.274529 L 136.97491,18.274529 L 136.97491,6.6009545 L 138.34573,6.6009545 L 138.34573,7.8845946 C 138.63223,7.3812139 138.99284,7.0087070 139.42755,6.7670726 C 139.86720,6.5204208 140.39082,6.3970909 140.99843,6.3970822 C 142.00616,6.3970909 142.82370,6.8048349 143.45107,7.6203158 C 144.08336,8.4358114 144.39952,9.5080274 144.39953,10.836967 C 144.39952,12.165915 144.08336,13.238131 143.45107,14.053618 C 142.82370,14.869108 142.00616,15.276852 140.99843,15.276852 C 140.39082,15.276852 139.86720,15.156038 139.42755,14.914412 C 138.99284,14.667752 138.63223,14.292728 138.34573,13.789339 M 142.98425,10.836967 C 142.98424,9.8150939 142.77677,9.0147073 142.36183,8.4358048 C 141.95181,7.8518816 141.38620,7.5599166 140.66499,7.5599092 C 139.94376,7.5599166 139.37568,7.8518816 138.96073,8.4358048 C 138.55072,9.0147073 138.34572,9.8150939 138.34573,10.836967 C 138.34572,11.858848 138.55072,12.661752 138.96073,13.245680 C 139.37568,13.824578 139.94376,14.114026 140.66499,14.114025 C 141.38620,14.114026 141.95181,13.824578 142.36183,13.245680 C 142.77677,12.661752 142.98424,11.858848 142.98425,10.836967 M 150.43110,10.806763 C 149.32950,10.806768 148.56629,10.935132 148.14146,11.191856 C 147.71664,11.448588 147.50422,11.886535 147.50423,12.505700 C 147.50422,12.999021 147.66230,13.391665 147.97846,13.683628 C 148.29954,13.970560 148.73425,14.114026 149.28257,14.114025 C 150.03837,14.114026 150.64350,13.842196 151.09797,13.298536 C 151.55738,12.749844 151.78708,12.022449 151.78708,11.116347 L 151.78708,10.806763 L 150.43110,10.806763 M 153.15049,10.232901 L 153.15049,15.057878 L 151.78708,15.057878 L 151.78708,13.774237 C 151.47587,14.287694 151.08809,14.667752 150.62375,14.914412 C 150.15940,15.156038 149.59131,15.276852 148.91949,15.276852 C 148.06984,15.276852 147.39308,15.035225 146.88921,14.551973 C 146.39029,14.063687 146.14082,13.411800 146.14082,12.596309 C 146.14082,11.644909 146.45203,10.927581 147.07446,10.444324 C 147.70182,9.9610764 148.63545,9.7194503 149.87536,9.7194449 L 151.78708,9.7194449 L 151.78708,9.5835300 C 151.78708,8.9442330 151.57961,8.4509131 151.16466,8.1035685 C 150.75465,7.7512040 150.17669,7.5750182 149.43077,7.5750108 C 148.95654,7.5750182 148.49467,7.6329079 148.04514,7.7486797 C 147.59561,7.8644663 147.16338,8.0381350 146.74843,8.2696866 L 146.74843,6.9860465 C 147.24735,6.7897333 147.73146,6.6437508 148.20074,6.5480987 C 148.67003,6.4474296 149.12697,6.3970909 149.57156,6.3970822 C 150.77194,6.3970909 151.66852,6.7142251 152.26131,7.3484860 C 152.85409,7.9827623 153.15048,8.9442330 153.15049,10.232901 M 160.77516,7.8996962 C 160.62202,7.8090936 160.45407,7.7436532 160.27130,7.7033748 C 160.09345,7.6580773 159.89587,7.6354248 159.67852,7.6354174 C 158.90789,7.6354248 158.31511,7.8921525 157.90016,8.4056015 C 157.49015,8.9140297 157.28514,9.6464590 157.28515,10.602891 L 157.28515,15.057878 L 155.91434,15.057878 L 155.91434,6.6009545 L 157.28515,6.6009545 L 157.28515,7.9147979 C 157.57166,7.4013495 157.94462,7.0212917 158.40403,6.7746234 C 158.86344,6.5229378 159.42164,6.3970909 160.07865,6.3970822 C 160.17250,6.3970909 160.27623,6.4046416 160.38986,6.4197347 C 160.50346,6.4298110 160.62943,6.4474296 160.76775,6.4725904 L 160.77516,7.8996962 M 163.56865,4.1997923 L 163.56865,6.6009545 L 166.37696,6.6009545 L 166.37696,7.6807224 L 163.56865,7.6807224 L 163.56865,12.271623 C 163.56865,12.961267 163.66003,13.404249 163.84281,13.600569 C 164.03052,13.796891 164.40842,13.895052 164.97651,13.895051 L 166.37696,13.895051 L 166.37696,15.057878 L 164.97651,15.057878 C 163.92432,15.057878 163.19816,14.859039 162.79803,14.461363 C 162.39790,14.058653 162.19784,13.328740 162.19784,12.271623 L 162.19784,7.6807224 L 161.19752,7.6807224 L 161.19752,6.6009545 L 162.19784,6.6009545 L 162.19784,4.1997923 L 163.56865,4.1997923 M 173.46813,6.8501316 L 173.46813,8.1639751 C 173.08281,7.9626269 172.68269,7.8116105 172.26774,7.7109257 C 171.85279,7.6102555 171.42302,7.5599166 170.97844,7.5599092 C 170.30167,7.5599166 169.79287,7.6656280 169.45202,7.8770438 C 169.11611,8.0884738 168.94815,8.4056082 168.94815,8.8284476 C 168.94815,9.1506220 169.06919,9.4048329 169.31124,9.5910809 C 169.55329,9.7723059 170.03986,9.9459747 170.77097,10.112088 L 171.23779,10.217799 C 172.20599,10.429227 172.89263,10.728743 173.29771,11.116347 C 173.70770,11.498926 173.91271,12.035034 173.91272,12.724673 C 173.91271,13.509961 173.60644,14.131644 172.99390,14.589726 C 172.38630,15.047810 171.54899,15.276852 170.48199,15.276852 C 170.03740,15.276852 169.57305,15.231546 169.08894,15.140937 C 168.60978,15.055361 168.10345,14.924480 167.56994,14.748294 L 167.56994,13.313637 C 168.07381,13.580435 168.57025,13.781789 169.05930,13.917704 C 169.54835,14.048586 170.03245,14.114026 170.51163,14.114025 C 171.15380,14.114026 171.64778,14.003281 171.99358,13.781788 C 172.33936,13.555265 172.51227,13.238131 172.51227,12.830384 C 172.51227,12.452846 172.38630,12.163398 172.13436,11.962039 C 171.88737,11.760688 171.34151,11.566883 170.49681,11.380626 L 170.02258,11.267364 C 169.17786,11.086148 168.56779,10.809285 168.19236,10.436774 C 167.81693,10.059237 167.62922,9.5432645 167.62922,8.8888542 C 167.62922,8.0935077 167.90585,7.4793746 168.45912,7.0464530 C 169.01238,6.6135476 169.79782,6.3970909 170.81543,6.3970822 C 171.31929,6.3970909 171.79351,6.4348449 172.23810,6.5103446 C 172.68269,6.5858612 173.09270,6.6991235 173.46813,6.8501316 M 58.053251,43.479179 C 56.966477,43.479190 56.102002,43.891968 55.459824,44.717515 C 54.822579,45.543080 54.503959,46.668152 54.503961,48.092733 C 54.503959,49.512293 54.822579,50.634847 55.459824,51.460401 C 56.102002,52.285960 56.966477,52.698738 58.053251,52.698737 C 59.140012,52.698738 59.999547,52.285960 60.631858,51.460401 C 61.269090,50.634847 61.587711,49.512293 61.587720,48.092733 C 61.587711,46.668152 61.269090,45.543080 60.631858,44.717515 C 59.999547,43.891968 59.140012,43.479190 58.053251,43.479179 M 58.053251,42.240845 C 59.604359,42.240856 60.844263,42.771930 61.772965,43.834068 C 62.701648,44.891193 63.165994,46.310746 63.166006,48.092733 C 63.165994,49.869698 62.701648,51.289251 61.772965,52.351399 C 60.844263,53.408514 59.604359,53.937071 58.053251,53.937071 C 56.497191,53.937071 55.252347,53.408514 54.318717,52.351399 C 53.390021,51.294286 52.925676,49.874732 52.925676,48.092733 C 52.925676,46.310746 53.390021,44.891193 54.318717,43.834068 C 55.252347,42.771930 56.497191,42.240856 58.053251,42.240845 M 70.257174,46.559916 C 70.104032,46.469313 69.936077,46.403873 69.753308,46.363594 C 69.575468,46.318297 69.377873,46.295645 69.160525,46.295638 C 68.389902,46.295645 67.797120,46.552373 67.382175,47.065821 C 66.972164,47.574250 66.767160,48.306679 66.767163,49.263111 L 66.767163,53.718098 L 65.396352,53.718098 L 65.396352,45.261174 L 66.767163,45.261174 L 66.767163,46.575018 C 67.053672,46.061569 67.426630,45.681511 67.886041,45.434844 C 68.345444,45.183158 68.903647,45.057310 69.560653,45.057302 C 69.654505,45.057310 69.758243,45.064861 69.871864,45.079955 C 69.985475,45.090031 70.111442,45.107650 70.249764,45.132811 L 70.257174,46.559916 M 71.702082,45.261174 L 73.065483,45.261174 L 73.065483,53.718098 L 71.702082,53.718098 L 71.702082,45.261174 M 71.702082,41.969014 L 73.065483,41.969014 L 73.065483,43.728357 L 71.702082,43.728357 L 71.702082,41.969014 M 81.371858,49.391475 C 81.371851,48.384704 81.166848,47.604452 80.756845,47.050720 C 80.351771,46.497000 79.781218,46.220136 79.045184,46.220129 C 78.314082,46.220136 77.743528,46.497000 77.333523,47.050720 C 76.928452,47.604452 76.725918,48.384704 76.725921,49.391475 C 76.725918,50.393221 76.928452,51.170955 77.333523,51.724680 C 77.743528,52.278409 78.314082,52.555272 79.045184,52.555271 C 79.781218,52.555272 80.351771,52.278409 80.756845,51.724680 C 81.166848,51.170955 81.371851,50.393221 81.371858,49.391475 M 82.735260,52.668533 C 82.735251,54.108223 82.421570,55.177922 81.794216,55.877634 C 81.166848,56.582374 80.206045,56.934746 78.911808,56.934749 C 78.432638,56.934746 77.980641,56.896991 77.555817,56.821486 C 77.130986,56.751009 76.718508,56.640264 76.318382,56.489251 L 76.318382,55.137652 C 76.718508,55.359142 77.113697,55.522743 77.503948,55.628457 C 77.894194,55.734166 78.291852,55.787021 78.696925,55.787024 C 79.591034,55.787021 80.260384,55.547912 80.704978,55.069695 C 81.149558,54.596510 81.371851,53.879182 81.371858,52.917710 L 81.371858,52.230585 C 81.090280,52.728940 80.729671,53.101447 80.290029,53.348107 C 79.850376,53.594767 79.324281,53.718098 78.711744,53.718098 C 77.694130,53.718098 76.874114,53.322939 76.251694,52.532618 C 75.629270,51.742300 75.318060,50.695254 75.318061,49.391475 C 75.318060,48.082672 75.629270,47.033107 76.251694,46.242782 C 76.874114,45.452470 77.694130,45.057310 78.711744,45.057302 C 79.324281,45.057310 79.850376,45.180641 80.290029,45.427293 C 80.729671,45.673960 81.090280,46.046468 81.371858,46.544815 L 81.371858,45.261174 L 82.735260,45.261174 L 82.735260,52.668533 M 85.543568,45.261174 L 86.906969,45.261174 L 86.906969,53.718098 L 85.543568,53.718098 L 85.543568,45.261174 M 85.543568,41.969014 L 86.906969,41.969014 L 86.906969,43.728357 L 85.543568,43.728357 L 85.543568,41.969014 M 96.650844,48.613741 L 96.650844,53.718098 L 95.287442,53.718098 L 95.287442,48.659045 C 95.287435,47.858664 95.134300,47.259632 94.828036,46.861949 C 94.521759,46.464280 94.062352,46.265441 93.449815,46.265434 C 92.713772,46.265441 92.133339,46.504551 91.708514,46.982762 C 91.283683,47.460987 91.071269,48.112875 91.071272,48.938426 L 91.071272,53.718098 L 89.700461,53.718098 L 89.700461,45.261174 L 91.071272,45.261174 L 91.071272,46.575018 C 91.397300,46.066604 91.780139,45.686545 92.219790,45.434844 C 92.664373,45.183158 93.175648,45.057310 93.753617,45.057302 C 94.707003,45.057310 95.428222,45.359343 95.917275,45.963401 C 96.406312,46.562440 96.650835,47.445886 96.650844,48.613741 M 103.15664,49.466984 C 102.05505,49.466988 101.29184,49.595351 100.86702,49.852075 C 100.44218,50.108807 100.22978,50.546754 100.22978,51.165919 C 100.22978,51.659242 100.38785,52.051884 100.70400,52.343848 C 101.02509,52.630780 101.45980,52.774245 102.00812,52.774244 C 102.76391,52.774245 103.36905,52.502416 103.82353,51.958755 C 104.28293,51.410065 104.51263,50.682670 104.51263,49.776568 L 104.51263,49.466984 L 103.15664,49.466984 M 105.87604,48.893121 L 105.87604,53.718098 L 104.51263,53.718098 L 104.51263,52.434458 C 104.20142,52.947915 103.81364,53.327972 103.34930,53.574632 C 102.88495,53.816259 102.31686,53.937071 101.64504,53.937071 C 100.79539,53.937071 100.11863,53.695445 99.614761,53.212193 C 99.115837,52.723907 98.866372,52.072019 98.866373,51.256529 C 98.866372,50.305128 99.177582,49.587800 99.800007,49.104544 C 100.42736,48.621297 101.36100,48.379670 102.60091,48.379664 L 104.51263,48.379664 L 104.51263,48.243750 C 104.51263,47.604452 104.30515,47.111133 103.89021,46.763788 C 103.48020,46.411424 102.90223,46.235238 102.15632,46.235231 C 101.68209,46.235238 101.22021,46.293128 100.77069,46.408899 C 100.32116,46.524686 99.888925,46.698355 99.473975,46.929906 L 99.473975,45.646267 C 99.972899,45.449954 100.45700,45.303971 100.92630,45.208318 C 101.39557,45.107650 101.85252,45.057310 102.29710,45.057302 C 103.49748,45.057310 104.39407,45.374445 104.98686,46.008706 C 105.57963,46.642982 105.87603,47.604452 105.87604,48.893121 M 108.69176,41.969014 L 110.05515,41.969014 L 110.05515,53.718098 L 108.69176,53.718098 L 108.69176,41.969014 M 119.05064,52.449559 L 119.05064,56.934749 L 117.67983,56.934749 L 117.67983,45.261174 L 119.05064,45.261174 L 119.05064,46.544815 C 119.33715,46.041433 119.69776,45.668927 120.13247,45.427293 C 120.57212,45.180641 121.09574,45.057310 121.70334,45.057302 C 122.71107,45.057310 123.52861,45.465055 124.15599,46.280536 C 124.78828,47.096031 125.10443,48.168248 125.10444,49.497187 C 125.10443,50.826135 124.78828,51.898351 124.15599,52.713838 C 123.52861,53.529327 122.71107,53.937071 121.70334,53.937071 C 121.09574,53.937071 120.57212,53.816259 120.13247,53.574632 C 119.69776,53.327972 119.33715,52.952948 119.05064,52.449559 M 123.68917,49.497187 C 123.68916,48.475314 123.48169,47.674928 123.06675,47.096025 C 122.65673,46.512102 122.09112,46.220136 121.36990,46.220129 C 120.64868,46.220136 120.08060,46.512102 119.66565,47.096025 C 119.25565,47.674928 119.05064,48.475314 119.05064,49.497187 C 119.05064,50.519069 119.25565,51.321971 119.66565,51.905899 C 120.08060,52.484797 120.64868,52.774245 121.36990,52.774244 C 122.09112,52.774245 122.65673,52.484797 123.06675,51.905899 C 123.48169,51.321971 123.68916,50.519069 123.68917,49.497187 M 132.17337,46.559916 C 132.02023,46.469313 131.85227,46.403873 131.66950,46.363594 C 131.49167,46.318297 131.29407,46.295645 131.07673,46.295638 C 130.30610,46.295645 129.71332,46.552373 129.29837,47.065821 C 128.88837,47.574250 128.68336,48.306679 128.68336,49.263111 L 128.68336,53.718098 L 127.31255,53.718098 L 127.31255,45.261174 L 128.68336,45.261174 L 128.68336,46.575018 C 128.96987,46.061569 129.34283,45.681511 129.80224,45.434844 C 130.26164,45.183158 130.81984,45.057310 131.47685,45.057302 C 131.57070,45.057310 131.67444,45.064861 131.78806,45.079955 C 131.90167,45.090031 132.02764,45.107650 132.16596,45.132811 L 132.17337,46.559916 M 136.50810,46.235231 C 135.77701,46.235238 135.19904,46.527203 134.77422,47.111126 C 134.34938,47.690028 134.13697,48.485381 134.13697,49.497187 C 134.13697,50.509000 134.34691,51.306870 134.76681,51.890798 C 135.19163,52.469696 135.77206,52.759144 136.50810,52.759143 C 137.23426,52.759144 137.80975,52.467179 138.23459,51.883247 C 138.65941,51.299319 138.87182,50.503967 138.87182,49.497187 C 138.87182,48.495450 138.65941,47.702613 138.23459,47.118677 C 137.80975,46.529720 137.23426,46.235238 136.50810,46.235231 M 136.50810,45.057302 C 137.69366,45.057310 138.62483,45.449954 139.30159,46.235231 C 139.97835,47.020523 140.31673,48.107841 140.31674,49.497187 C 140.31673,50.881507 139.97835,51.968825 139.30159,52.759143 C 138.62483,53.544429 137.69366,53.937071 136.50810,53.937071 C 135.31760,53.937071 134.38396,53.544429 133.70720,52.759143 C 133.03539,51.968825 132.69948,50.881507 132.69948,49.497187 C 132.69948,48.107841 133.03539,47.020523 133.70720,46.235231 C 134.38396,45.449954 135.31760,45.057310 136.50810,45.057302 M 148.54160,45.585860 L 148.54160,46.884602 C 148.15628,46.668152 147.76851,46.507068 147.37826,46.401349 C 146.99294,46.290610 146.60270,46.235238 146.20751,46.235231 C 145.32328,46.235238 144.63664,46.522169 144.14759,47.096025 C 143.65854,47.664859 143.41402,48.465246 143.41402,49.497187 C 143.41402,50.529136 143.65854,51.332040 144.14759,51.905899 C 144.63664,52.474730 145.32328,52.759144 146.20751,52.759143 C 146.60270,52.759144 146.99294,52.706289 147.37826,52.600576 C 147.76851,52.489832 148.15628,52.326230 148.54160,52.109772 L 148.54160,53.393412 C 148.16123,53.574632 147.76603,53.710547 147.35603,53.801157 C 146.95096,53.891766 146.51872,53.937071 146.05931,53.937071 C 144.80953,53.937071 143.81662,53.536878 143.08058,52.736490 C 142.34454,51.936105 141.97653,50.856338 141.97653,49.497187 C 141.97653,48.117908 142.34702,47.033107 143.08799,46.242782 C 143.83391,45.452470 144.85399,45.057310 146.14823,45.057302 C 146.56812,45.057310 146.97812,45.102615 147.37826,45.193217 C 147.77838,45.278802 148.16616,45.409683 148.54160,45.585860 M 158.02614,49.142298 L 158.02614,49.821872 L 151.75745,49.821872 C 151.81673,50.778313 152.09830,51.508225 152.60217,52.011611 C 153.11097,52.509966 153.81737,52.759144 154.72137,52.759143 C 155.24499,52.759144 155.75132,52.693704 156.24037,52.562821 C 156.73435,52.431941 157.22340,52.235620 157.70751,51.973857 L 157.70751,53.287701 C 157.21846,53.499124 156.71707,53.660208 156.20332,53.770953 C 155.68958,53.881699 155.16841,53.937071 154.63986,53.937071 C 153.31597,53.937071 152.26625,53.544429 151.49070,52.759143 C 150.72008,51.973859 150.33477,50.911711 150.33477,49.572695 C 150.33477,48.188383 150.70032,47.090998 151.43142,46.280536 C 152.16746,45.465055 153.15790,45.057310 154.40275,45.057302 C 155.51915,45.057310 156.40091,45.424783 157.04804,46.159722 C 157.70009,46.889642 158.02613,47.883833 158.02614,49.142298 M 156.66273,48.734553 C 156.65284,47.974443 156.44290,47.367860 156.03290,46.914804 C 155.62782,46.461762 155.08938,46.235238 154.41757,46.235231 C 153.65682,46.235238 153.04675,46.454212 152.58735,46.892153 C 152.13288,47.330106 151.87107,47.946756 151.80191,48.742104 L 156.66273,48.734553 M 165.55448,45.510351 L 165.55448,46.824195 C 165.16917,46.622847 164.76904,46.471831 164.35409,46.371145 C 163.93914,46.270476 163.50937,46.220136 163.06479,46.220129 C 162.38802,46.220136 161.87922,46.325848 161.53837,46.537264 C 161.20246,46.748694 161.03450,47.065828 161.03451,47.488668 C 161.03450,47.810842 161.15553,48.065052 161.39758,48.251301 C 161.63964,48.432525 162.12621,48.606195 162.85732,48.772308 L 163.32413,48.878019 C 164.29234,49.089447 164.97898,49.388963 165.38405,49.776568 C 165.79406,50.159146 165.99906,50.695254 165.99907,51.384893 C 165.99906,52.170180 165.69279,52.791865 165.08025,53.249947 C 164.47265,53.708030 163.63534,53.937071 162.56833,53.937071 C 162.12374,53.937071 161.65939,53.891766 161.17530,53.801157 C 160.69613,53.715581 160.18979,53.584700 159.65629,53.408514 L 159.65629,51.973857 C 160.16015,52.240654 160.65661,52.442010 161.14566,52.577923 C 161.63470,52.708805 162.11880,52.774245 162.59797,52.774244 C 163.24015,52.774245 163.73413,52.663500 164.07994,52.442008 C 164.42572,52.215485 164.59861,51.898351 164.59861,51.490605 C 164.59861,51.113066 164.47265,50.823618 164.22071,50.622260 C 163.97372,50.420908 163.42786,50.227103 162.58315,50.040846 L 162.10892,49.927584 C 161.26421,49.746368 160.65413,49.469504 160.27871,49.096993 C 159.90328,48.719457 159.71556,48.203484 159.71556,47.549074 C 159.71556,46.753728 159.99219,46.139594 160.54546,45.706673 C 161.09872,45.273767 161.88416,45.057310 162.90177,45.057302 C 163.40563,45.057310 163.87986,45.095065 164.32445,45.170564 C 164.76904,45.246082 165.17904,45.359343 165.55448,45.510351 M 173.46813,45.510351 L 173.46813,46.824195 C 173.08281,46.622847 172.68269,46.471831 172.26774,46.371145 C 171.85279,46.270476 171.42302,46.220136 170.97844,46.220129 C 170.30167,46.220136 169.79287,46.325848 169.45202,46.537264 C 169.11611,46.748694 168.94815,47.065828 168.94816,47.488668 C 168.94815,47.810842 169.06919,48.065052 169.31124,48.251301 C 169.55329,48.432525 170.03986,48.606195 170.77097,48.772308 L 171.23779,48.878019 C 172.20599,49.089447 172.89263,49.388963 173.29771,49.776568 C 173.70770,50.159146 173.91271,50.695254 173.91272,51.384893 C 173.91271,52.170180 173.60644,52.791865 172.99390,53.249947 C 172.38630,53.708030 171.54899,53.937071 170.48199,53.937071 C 170.03740,53.937071 169.57305,53.891766 169.08894,53.801157 C 168.60978,53.715581 168.10345,53.584700 167.56994,53.408514 L 167.56994,51.973857 C 168.07381,52.240654 168.57025,52.442010 169.05930,52.577923 C 169.54835,52.708805 170.03245,52.774245 170.51163,52.774244 C 171.15380,52.774245 171.64778,52.663500 171.99358,52.442008 C 172.33936,52.215485 172.51227,51.898351 172.51227,51.490605 C 172.51227,51.113066 172.38630,50.823618 172.13436,50.622260 C 171.88737,50.420908 171.34151,50.227103 170.49681,50.040846 L 170.02258,49.927584 C 169.17786,49.746368 168.56779,49.469504 168.19236,49.096993 C 167.81693,48.719457 167.62922,48.203484 167.62922,47.549074 C 167.62922,46.753728 167.90585,46.139594 168.45912,45.706673 C 169.01238,45.273767 169.79782,45.057310 170.81543,45.057302 C 171.31929,45.057310 171.79351,45.095065 172.23810,45.170564 C 172.68269,45.246082 173.09270,45.359343 173.46813,45.510351 M 25.079687,100.43506 L 27.310034,100.43506 L 30.133163,108.10670 L 32.971113,100.43506 L 35.201460,100.43506 L 35.201460,111.70843 L 33.741732,111.70843 L 33.741732,101.80931 L 30.888963,109.54135 L 29.384775,109.54135 L 26.532006,101.80931 L 26.532006,111.70843 L 25.079687,111.70843 L 25.079687,100.43506 M 41.892499,107.45733 C 40.790907,107.45733 40.027700,107.58569 39.602875,107.84242 C 39.178044,108.09915 38.965630,108.53710 38.965632,109.15626 C 38.965630,109.64959 39.123706,110.04222 39.439860,110.33419 C 39.760947,110.62112 40.195654,110.76459 40.743982,110.76459 C 41.499776,110.76459 42.104909,110.49276 42.559381,109.94910 C 43.018781,109.40041 43.248485,108.67301 43.248491,107.76691 L 43.248491,107.45733 L 41.892499,107.45733 M 44.611893,106.88346 L 44.611893,111.70843 L 43.248491,111.70843 L 43.248491,110.42480 C 42.937274,110.93826 42.549496,111.31831 42.085154,111.56497 C 41.620802,111.80660 41.052719,111.92741 40.380902,111.92741 C 39.531244,111.92741 38.854484,111.68578 38.350620,111.20253 C 37.851694,110.71425 37.602230,110.06236 37.602231,109.24687 C 37.602230,108.29547 37.913442,107.57814 38.535865,107.09488 C 39.163225,106.61164 40.096858,106.37001 41.336765,106.37000 L 43.248491,106.37000 L 43.248491,106.23409 C 43.248485,105.59479 43.041011,105.10147 42.626068,104.75413 C 42.216055,104.40176 41.638092,104.22558 40.892178,104.22557 C 40.417947,104.22558 39.956071,104.28346 39.506547,104.39924 C 39.057018,104.51503 38.624781,104.68870 38.209834,104.92025 L 38.209834,103.63661 C 38.708758,103.44029 39.192864,103.29431 39.662153,103.19866 C 40.131436,103.09799 40.588373,103.04765 41.032964,103.04764 C 42.233344,103.04765 43.129928,103.36478 43.722718,103.99905 C 44.315493,104.63332 44.611885,105.59479 44.611893,106.88346 M 47.375744,99.959354 L 48.746556,99.959354 L 48.746556,106.89856 L 52.814529,103.25151 L 54.555830,103.25151 L 50.154416,107.20815 L 54.741075,111.70843 L 52.962726,111.70843 L 48.746556,107.57814 L 48.746556,111.70843 L 47.375744,111.70843 L 47.375744,99.959354 M 62.795518,107.13264 L 62.795518,107.81222 L 56.526836,107.81222 C 56.586111,108.76865 56.867683,109.49857 57.371552,110.00195 C 57.880354,110.50031 58.586753,110.74949 59.490751,110.74949 C 60.014370,110.74949 60.520705,110.68404 61.009758,110.55316 C 61.503737,110.42229 61.992782,110.22596 62.476897,109.96420 L 62.476897,111.27804 C 61.987843,111.48946 61.486447,111.65055 60.972709,111.76129 C 60.458957,111.87204 59.937803,111.92741 59.409244,111.92741 C 58.085358,111.92741 57.035639,111.53476 56.260084,110.74949 C 55.489464,109.96420 55.104155,108.90205 55.104156,107.56304 C 55.104155,106.17872 55.469704,105.08134 56.200805,104.27088 C 56.936841,103.45539 57.927282,103.04765 59.172130,103.04764 C 60.288533,103.04765 61.170297,103.41513 61.817425,104.15006 C 62.469479,104.87998 62.795509,105.87417 62.795518,107.13264 M 61.432116,106.72489 C 61.422229,105.96478 61.212286,105.35820 60.802284,104.90515 C 60.397209,104.45211 59.858765,104.22558 59.186950,104.22557 C 58.426207,104.22558 57.816136,104.44456 57.356732,104.88250 C 56.902262,105.32044 56.640450,105.93710 56.571295,106.73244 L 61.432116,106.72489 M 108.72139,100.43506 L 114.59736,100.43506 L 114.59736,101.71870 L 110.09220,101.71870 L 110.09220,104.48230 C 110.30955,104.40680 110.52690,104.35142 110.74426,104.31618 C 110.96162,104.27591 111.17897,104.25578 111.39633,104.25577 C 112.63128,104.25578 113.60938,104.60060 114.33060,105.29024 C 115.05181,105.97988 115.41242,106.91366 115.41243,108.09160 C 115.41242,109.30476 115.04194,110.24862 114.30097,110.92316 C 113.55997,111.59266 112.51520,111.92741 111.16662,111.92741 C 110.70227,111.92741 110.22804,111.88714 109.74394,111.80660 C 109.26478,111.72606 108.76832,111.60525 108.25458,111.44415 L 108.25458,109.91134 C 108.69916,110.15801 109.15856,110.34174 109.63279,110.46255 C 110.10702,110.58337 110.60841,110.64377 111.13698,110.64377 C 111.99157,110.64377 112.66833,110.41474 113.16726,109.95665 C 113.66619,109.49857 113.91565,108.87689 113.91566,108.09160 C 113.91565,107.30631 113.66619,106.68462 113.16726,106.22654 C 112.66833,105.76846 111.99157,105.53942 111.13698,105.53941 C 110.73685,105.53942 110.33672,105.58472 109.93659,105.67532 C 109.54141,105.76594 109.13633,105.90690 108.72139,106.09817 L 108.72139,100.43506 M 125.07480,103.25151 L 122.07383,107.36672 L 125.23040,111.70843 L 123.62248,111.70843 L 121.20689,108.38607 L 118.79130,111.70843 L 117.18337,111.70843 L 120.40663,107.28366 L 117.45754,103.25151 L 119.06546,103.25151 L 121.26617,106.26429 L 123.46688,103.25151 L 125.07480,103.25151 M 136.18948,99.959354 L 136.18948,101.11463 L 134.88535,101.11463 C 134.39631,101.11464 134.05545,101.21532 133.86281,101.41667 C 133.67509,101.61802 133.58123,101.98047 133.58124,102.50398 L 133.58124,103.25151 L 135.82640,103.25151 L 135.82640,104.33128 L 133.58124,104.33128 L 133.58124,111.70843 L 132.21042,111.70843 L 132.21042,104.33128 L 130.90630,104.33128 L 130.90630,103.25151 L 132.21042,103.25151 L 132.21042,102.66255 C 132.21042,101.72122 132.42530,101.03662 132.85507,100.60873 C 133.28484,100.17582 133.96654,99.959366 134.90017,99.959354 L 136.18948,99.959354 M 141.09476,107.45733 C 139.99316,107.45733 139.22996,107.58569 138.80514,107.84242 C 138.38031,108.09915 138.16789,108.53710 138.16789,109.15626 C 138.16789,109.64959 138.32596,110.04222 138.64212,110.33419 C 138.96321,110.62112 139.39791,110.76459 139.94625,110.76459 C 140.70204,110.76459 141.30717,110.49276 141.76164,109.94910 C 142.22104,109.40041 142.45074,108.67301 142.45075,107.76691 L 142.45075,107.45733 L 141.09476,107.45733 M 143.81415,106.88346 L 143.81415,111.70843 L 142.45075,111.70843 L 142.45075,110.42480 C 142.13953,110.93826 141.75176,111.31831 141.28741,111.56497 C 140.82306,111.80660 140.25498,111.92741 139.58317,111.92741 C 138.73350,111.92741 138.05674,111.68578 137.55288,111.20253 C 137.05395,110.71425 136.80449,110.06236 136.80449,109.24687 C 136.80449,108.29547 137.11570,107.57814 137.73812,107.09488 C 138.36549,106.61164 139.29912,106.37001 140.53902,106.37000 L 142.45075,106.37000 L 142.45075,106.23409 C 142.45074,105.59479 142.24327,105.10147 141.82833,104.75413 C 141.41831,104.40176 140.84035,104.22558 140.09444,104.22557 C 139.62020,104.22558 139.15833,104.28346 138.70881,104.39924 C 138.25928,104.51503 137.82704,104.68870 137.41209,104.92025 L 137.41209,103.63661 C 137.91101,103.44029 138.39513,103.29431 138.86441,103.19866 C 139.33370,103.09799 139.79063,103.04765 140.23522,103.04764 C 141.43560,103.04765 142.33219,103.36478 142.92498,103.99905 C 143.51776,104.63332 143.81414,105.59479 143.81415,106.88346 M 151.92047,103.50069 L 151.92047,104.81454 C 151.53515,104.61319 151.13502,104.46217 150.72008,104.36149 C 150.30513,104.26081 149.87536,104.21048 149.43078,104.21047 C 148.75401,104.21048 148.24521,104.31619 147.90436,104.52761 C 147.56845,104.73903 147.40049,105.05616 147.40049,105.47900 C 147.40049,105.80119 147.52151,106.05539 147.76357,106.24164 C 148.00563,106.42287 148.49220,106.59654 149.22331,106.76265 L 149.69012,106.86836 C 150.65832,107.07978 151.34497,107.37930 151.75004,107.76691 C 152.16004,108.14949 152.36505,108.68559 152.36506,109.37523 C 152.36505,110.16052 152.05878,110.78220 151.44624,111.24028 C 150.83864,111.69837 150.00133,111.92741 148.93432,111.92741 C 148.48973,111.92741 148.02538,111.88210 147.54128,111.79149 C 147.06212,111.70592 146.55578,111.57504 146.02228,111.39885 L 146.02228,109.96420 C 146.52614,110.23099 147.02259,110.43235 147.51164,110.56827 C 148.00069,110.69914 148.48479,110.76459 148.96396,110.76459 C 149.60614,110.76459 150.10012,110.65384 150.44592,110.43235 C 150.79170,110.20582 150.96460,109.88869 150.96460,109.48094 C 150.96460,109.10340 150.83864,108.81395 150.58670,108.61260 C 150.33970,108.41125 149.79385,108.21745 148.94914,108.03119 L 148.47491,107.91793 C 147.63020,107.73671 147.02012,107.45985 146.64470,107.08733 C 146.26927,106.70980 146.08155,106.19382 146.08155,105.53941 C 146.08155,104.74407 146.35818,104.12993 146.91145,103.69701 C 147.46471,103.26411 148.25014,103.04765 149.26776,103.04764 C 149.77162,103.04765 150.24585,103.08540 150.69044,103.16090 C 151.13502,103.23642 151.54503,103.34968 151.92047,103.50069 M 155.89212,100.85035 L 155.89212,103.25151 L 158.70043,103.25151 L 158.70043,104.33128 L 155.89212,104.33128 L 155.89212,108.92218 C 155.89212,109.61183 155.98350,110.05481 156.16628,110.25113 C 156.35399,110.44745 156.73190,110.54561 157.29997,110.54561 L 158.70043,110.54561 L 158.70043,111.70843 L 157.29997,111.70843 C 156.24778,111.70843 155.52163,111.50960 155.12150,111.11193 C 154.72137,110.70921 154.52130,109.97930 154.52130,108.92218 L 154.52130,104.33128 L 153.52099,104.33128 L 153.52099,103.25151 L 154.52130,103.25151 L 154.52130,100.85035 L 155.89212,100.85035 M 167.59959,107.13264 L 167.59959,107.81222 L 161.33090,107.81222 C 161.39018,108.76865 161.67176,109.49857 162.17562,110.00195 C 162.68442,110.50031 163.39082,110.74949 164.29482,110.74949 C 164.81844,110.74949 165.32477,110.68404 165.81383,110.55316 C 166.30780,110.42229 166.79685,110.22596 167.28097,109.96420 L 167.28097,111.27804 C 166.79191,111.48946 166.29052,111.65055 165.77678,111.76129 C 165.26303,111.87204 164.74188,111.92741 164.21331,111.92741 C 162.88943,111.92741 161.83970,111.53476 161.06415,110.74949 C 160.29353,109.96420 159.90823,108.90205 159.90823,107.56304 C 159.90823,106.17872 160.27378,105.08134 161.00487,104.27088 C 161.74091,103.45539 162.73135,103.04765 163.97620,103.04764 C 165.09260,103.04765 165.97436,103.41513 166.62149,104.15006 C 167.27355,104.87998 167.59958,105.87417 167.59959,107.13264 M 166.23618,106.72489 C 166.22630,105.96478 166.01635,105.35820 165.60636,104.90515 C 165.20127,104.45211 164.66283,104.22558 163.99102,104.22557 C 163.23027,104.22558 162.62020,104.44456 162.16080,104.88250 C 161.70633,105.32044 161.44452,105.93710 161.37536,106.73244 L 166.23618,106.72489 M 174.64629,104.55026 C 174.49314,104.45966 174.32519,104.39421 174.14242,104.35394 C 173.96458,104.30864 173.76699,104.28599 173.54964,104.28598 C 172.77902,104.28599 172.18623,104.54271 171.77129,105.05616 C 171.36128,105.56459 171.15628,106.29702 171.15628,107.25345 L 171.15628,111.70843 L 169.78546,111.70843 L 169.78546,103.25151 L 171.15628,103.25151 L 171.15628,104.56536 C 171.44279,104.05191 171.81574,103.67186 172.27515,103.42518 C 172.73456,103.17350 173.29276,103.04765 173.94977,103.04764 C 174.04362,103.04765 174.14736,103.05520 174.26098,103.07029 C 174.37459,103.08037 174.50055,103.09799 174.63888,103.12315 L 174.64629,104.55026 M 25.079687,158.42539 L 27.310034,158.42539 L 30.133163,166.09703 L 32.971113,158.42539 L 35.201460,158.42539 L 35.201460,169.69877 L 33.741732,169.69877 L 33.741732,159.79964 L 30.888963,167.53169 L 29.384775,167.53169 L 26.532006,159.79964 L 26.532006,169.69877 L 25.079687,169.69877 L 25.079687,158.42539 M 41.892499,165.44766 C 40.790907,165.44767 40.027700,165.57603 39.602875,165.83275 C 39.178044,166.08948 38.965630,166.52743 38.965632,167.14660 C 38.965630,167.63992 39.123706,168.03256 39.439860,168.32452 C 39.760947,168.61145 40.195654,168.75492 40.743982,168.75492 C 41.499776,168.75492 42.104909,168.48309 42.559381,167.93943 C 43.018781,167.39074 43.248485,166.66334 43.248491,165.75724 L 43.248491,165.44766 L 41.892499,165.44766 M 44.611893,164.87379 L 44.611893,169.69877 L 43.248491,169.69877 L 43.248491,168.41513 C 42.937274,168.92859 42.549496,169.30864 42.085154,169.55531 C 41.620802,169.79694 41.052719,169.91775 40.380902,169.91775 C 39.531244,169.91775 38.854484,169.67612 38.350620,169.19287 C 37.851694,168.70459 37.602230,168.05270 37.602231,167.23721 C 37.602230,166.28580 37.913442,165.56848 38.535865,165.08521 C 39.163225,164.60197 40.096858,164.36034 41.336765,164.36034 L 43.248491,164.36034 L 43.248491,164.22443 C 43.248485,163.58513 43.041011,163.09181 42.626068,162.74446 C 42.216055,162.39210 41.638092,162.21591 40.892178,162.21590 C 40.417947,162.21591 39.956071,162.27381 39.506547,162.38957 C 39.057018,162.50536 38.624781,162.67903 38.209834,162.91058 L 38.209834,161.62695 C 38.708758,161.43062 39.192864,161.28464 39.662153,161.18900 C 40.131436,161.08832 40.588373,161.03799 41.032964,161.03798 C 42.233344,161.03799 43.129928,161.35512 43.722718,161.98938 C 44.315493,162.62366 44.611885,163.58513 44.611893,164.87379 M 47.375744,157.94969 L 48.746556,157.94969 L 48.746556,164.88889 L 52.814529,161.24185 L 54.555830,161.24185 L 50.154416,165.19848 L 54.741075,169.69877 L 52.962726,169.69877 L 48.746556,165.56847 L 48.746556,169.69877 L 47.375744,169.69877 L 47.375744,157.94969 M 62.795518,165.12297 L 62.795518,165.80255 L 56.526836,165.80255 C 56.586111,166.75899 56.867683,167.48890 57.371552,167.99228 C 57.880354,168.49064 58.586753,168.73982 59.490751,168.73982 C 60.014370,168.73982 60.520705,168.67438 61.009758,168.54349 C 61.503737,168.41262 61.992782,168.21629 62.476897,167.95453 L 62.476897,169.26838 C 61.987843,169.47980 61.486447,169.64088 60.972709,169.75163 C 60.458957,169.86237 59.937803,169.91775 59.409244,169.91775 C 58.085358,169.91775 57.035639,169.52510 56.260084,168.73982 C 55.489464,167.95454 55.104155,166.89238 55.104156,165.55337 C 55.104155,164.16906 55.469704,163.07167 56.200805,162.26121 C 56.936841,161.44573 57.927282,161.03799 59.172130,161.03798 C 60.288533,161.03799 61.170297,161.40546 61.817425,162.14039 C 62.469479,162.87032 62.795509,163.86451 62.795518,165.12297 M 61.432116,164.71523 C 61.422229,163.95512 61.212286,163.34854 60.802284,162.89548 C 60.397209,162.44244 59.858765,162.21591 59.186950,162.21590 C 58.426207,162.21591 57.816136,162.43489 57.356732,162.87283 C 56.902262,163.31079 56.640450,163.92743 56.571295,164.72278 L 61.432116,164.71523 M 109.99587,168.41513 L 115.21977,168.41513 L 115.21977,169.69877 L 108.19530,169.69877 L 108.19530,168.41513 C 108.76338,167.81610 109.53646,167.01320 110.51456,166.00642 C 111.49759,164.99461 112.11507,164.34273 112.36700,164.05076 C 112.84617,163.50207 113.17961,163.03895 113.36733,162.66140 C 113.55997,162.27883 113.65630,161.90381 113.65631,161.53634 C 113.65630,160.93730 113.44883,160.44902 113.03389,160.07147 C 112.62387,159.69394 112.08790,159.50517 111.42597,159.50516 C 110.95667,159.50517 110.46021,159.58823 109.93659,159.75433 C 109.41791,159.92046 108.86217,160.17216 108.26940,160.50942 L 108.26940,158.96906 C 108.87206,158.72240 109.43519,158.53614 109.95882,158.41029 C 110.48244,158.28445 110.96162,158.22153 111.39633,158.22152 C 112.54236,158.22153 113.45624,158.51349 114.13795,159.09741 C 114.81964,159.68136 115.16049,160.46161 115.16049,161.43817 C 115.16049,161.90130 115.07404,162.34176 114.90115,162.75956 C 114.73319,163.17235 114.42446,163.66064 113.97493,164.22443 C 113.85142,164.37042 113.45871,164.79326 112.79677,165.49296 C 112.13483,166.18764 111.20120,167.16170 109.99587,168.41513 M 125.07480,161.24185 L 122.07383,165.35705 L 125.23040,169.69877 L 123.62248,169.69877 L 121.20689,166.37641 L 118.79130,169.69877 L 117.18337,169.69877 L 120.40663,165.27399 L 117.45754,161.24185 L 119.06546,161.24185 L 121.26617,164.25463 L 123.46688,161.24185 L 125.07480,161.24185 M 136.18948,157.94969 L 136.18948,159.10496 L 134.88535,159.10496 C 134.39631,159.10498 134.05545,159.20566 133.86281,159.40700 C 133.67509,159.60836 133.58123,159.97081 133.58124,160.49432 L 133.58124,161.24185 L 135.82640,161.24185 L 135.82640,162.32161 L 133.58124,162.32161 L 133.58124,169.69877 L 132.21042,169.69877 L 132.21042,162.32161 L 130.90630,162.32161 L 130.90630,161.24185 L 132.21042,161.24185 L 132.21042,160.65289 C 132.21042,159.71156 132.42530,159.02695 132.85507,158.59906 C 133.28484,158.16616 133.96654,157.94970 134.90017,157.94969 L 136.18948,157.94969 M 141.09476,165.44766 C 139.99316,165.44767 139.22996,165.57603 138.80514,165.83275 C 138.38031,166.08948 138.16789,166.52743 138.16789,167.14660 C 138.16789,167.63992 138.32596,168.03256 138.64212,168.32452 C 138.96321,168.61145 139.39791,168.75492 139.94625,168.75492 C 140.70204,168.75492 141.30717,168.48309 141.76164,167.93943 C 142.22104,167.39074 142.45074,166.66334 142.45075,165.75724 L 142.45075,165.44766 L 141.09476,165.44766 M 143.81415,164.87379 L 143.81415,169.69877 L 142.45075,169.69877 L 142.45075,168.41513 C 142.13953,168.92859 141.75176,169.30864 141.28741,169.55531 C 140.82306,169.79694 140.25498,169.91775 139.58317,169.91775 C 138.73350,169.91775 138.05674,169.67612 137.55288,169.19287 C 137.05395,168.70459 136.80449,168.05270 136.80449,167.23721 C 136.80449,166.28580 137.11570,165.56848 137.73812,165.08521 C 138.36549,164.60197 139.29912,164.36034 140.53902,164.36034 L 142.45075,164.36034 L 142.45075,164.22443 C 142.45074,163.58513 142.24327,163.09181 141.82833,162.74446 C 141.41831,162.39210 140.84035,162.21591 140.09444,162.21590 C 139.62020,162.21591 139.15833,162.27381 138.70881,162.38957 C 138.25928,162.50536 137.82704,162.67903 137.41209,162.91058 L 137.41209,161.62695 C 137.91101,161.43062 138.39513,161.28464 138.86441,161.18900 C 139.33370,161.08832 139.79063,161.03799 140.23522,161.03798 C 141.43560,161.03799 142.33219,161.35512 142.92498,161.98938 C 143.51776,162.62366 143.81414,163.58513 143.81415,164.87379 M 151.92047,161.49103 L 151.92047,162.80487 C 151.53515,162.60352 151.13502,162.45250 150.72008,162.35182 C 150.30513,162.25115 149.87536,162.20081 149.43078,162.20080 C 148.75401,162.20081 148.24521,162.30652 147.90436,162.51794 C 147.56845,162.72937 147.40049,163.04651 147.40049,163.46934 C 147.40049,163.79152 147.52151,164.04573 147.76357,164.23198 C 148.00563,164.41320 148.49220,164.58687 149.22331,164.75299 L 149.69012,164.85869 C 150.65832,165.07012 151.34497,165.36963 151.75004,165.75724 C 152.16004,166.13982 152.36505,166.67593 152.36506,167.36557 C 152.36505,168.15086 152.05878,168.77254 151.44624,169.23062 C 150.83864,169.68870 150.00133,169.91775 148.93432,169.91775 C 148.48973,169.91775 148.02538,169.87244 147.54128,169.78183 C 147.06212,169.69625 146.55578,169.56537 146.02228,169.38919 L 146.02228,167.95453 C 146.52614,168.22133 147.02259,168.42268 147.51164,168.55860 C 148.00069,168.68948 148.48479,168.75492 148.96396,168.75492 C 149.60614,168.75492 150.10012,168.64418 150.44592,168.42268 C 150.79170,168.19616 150.96460,167.87903 150.96460,167.47128 C 150.96460,167.09374 150.83864,166.80430 150.58670,166.60294 C 150.33970,166.40159 149.79385,166.20778 148.94914,166.02152 L 148.47491,165.90826 C 147.63020,165.72705 147.02012,165.45018 146.64470,165.07766 C 146.26927,164.70013 146.08155,164.18416 146.08155,163.52975 C 146.08155,162.73441 146.35818,162.12027 146.91145,161.68735 C 147.46471,161.25444 148.25014,161.03799 149.26776,161.03798 C 149.77162,161.03799 150.24585,161.07574 150.69044,161.15124 C 151.13502,161.22676 151.54503,161.34002 151.92047,161.49103 M 155.89212,158.84069 L 155.89212,161.24185 L 158.70043,161.24185 L 158.70043,162.32161 L 155.89212,162.32161 L 155.89212,166.91252 C 155.89212,167.60216 155.98350,168.04515 156.16628,168.24146 C 156.35399,168.43778 156.73190,168.53594 157.29997,168.53594 L 158.70043,168.53594 L 158.70043,169.69877 L 157.29997,169.69877 C 156.24778,169.69877 155.52163,169.49994 155.12150,169.10226 C 154.72137,168.69955 154.52130,167.96964 154.52130,166.91252 L 154.52130,162.32161 L 153.52099,162.32161 L 153.52099,161.24185 L 154.52130,161.24185 L 154.52130,158.84069 L 155.89212,158.84069 M 167.59959,165.12297 L 167.59959,165.80255 L 161.33090,165.80255 C 161.39018,166.75899 161.67176,167.48890 162.17562,167.99228 C 162.68442,168.49064 163.39082,168.73982 164.29482,168.73982 C 164.81844,168.73982 165.32477,168.67438 165.81383,168.54349 C 166.30780,168.41262 166.79685,168.21629 167.28097,167.95453 L 167.28097,169.26838 C 166.79191,169.47980 166.29052,169.64088 165.77678,169.75163 C 165.26303,169.86237 164.74188,169.91775 164.21331,169.91775 C 162.88943,169.91775 161.83970,169.52510 161.06415,168.73982 C 160.29353,167.95454 159.90823,166.89238 159.90823,165.55337 C 159.90823,164.16906 160.27378,163.07167 161.00487,162.26121 C 161.74091,161.44573 162.73135,161.03799 163.97620,161.03798 C 165.09260,161.03799 165.97436,161.40546 166.62149,162.14039 C 167.27355,162.87032 167.59958,163.86451 167.59959,165.12297 M 166.23618,164.71523 C 166.22630,163.95512 166.01635,163.34854 165.60636,162.89548 C 165.20127,162.44244 164.66283,162.21591 163.99102,162.21590 C 163.23027,162.21591 162.62020,162.43489 162.16080,162.87283 C 161.70633,163.31079 161.44452,163.92743 161.37536,164.72278 L 166.23618,164.71523 M 174.64629,162.54059 C 174.49314,162.44999 174.32519,162.38454 174.14242,162.34427 C 173.96458,162.29897 173.76699,162.27632 173.54964,162.27631 C 172.77902,162.27632 172.18623,162.53305 171.77129,163.04650 C 171.36128,163.55493 171.15628,164.28736 171.15628,165.24378 L 171.15628,169.69877 L 169.78546,169.69877 L 169.78546,161.24185 L 171.15628,161.24185 L 171.15628,162.55569 C 171.44279,162.04224 171.81574,161.66219 172.27515,161.41552 C 172.73456,161.16383 173.29276,161.03799 173.94977,161.03798 C 174.04362,161.03799 174.14736,161.04554 174.26098,161.06063 C 174.37459,161.07071 174.50055,161.08832 174.63888,161.11349 L 174.64629,162.54059"
     style="font-size:15.318987px;font-style:normal;font-variant:normal;font-weight:normal;font-stretch:normal;text-align:end;line-height:125.00000%;writing-mode:lr-tb;text-anchor:end;fill:#000000;fill-opacity:1.0000000;stroke:none;stroke-width:1.0000000px;stroke-linecap:butt;stroke-linejoin:miter;stroke-opacity:1.0000000;font-family:Sans"
     id="text2768" />
  <path
     d="M 214.32056,11.873175 L 209.61743,11.873175 L 208.87524,13.998175 L 205.85181,13.998175 L 210.17212,2.3341122 L 213.75806,2.3341122 L 218.07837,13.998175 L 215.05493,13.998175 L 214.32056,11.873175 M 210.36743,9.7091122 L 213.56274,9.7091122 L 211.96899,5.0684872 L 210.36743,9.7091122"
     style="font-size:16.000000px;font-style:normal;font-variant:normal;font-weight:bold;font-stretch:normal;text-align:start;line-height:125.00000%;writing-mode:lr-tb;text-anchor:start;fill:#ff0000;fill-opacity:1.0000000;stroke:none;stroke-width:1.0000000px;stroke-linecap:butt;stroke-linejoin:miter;stroke-opacity:1.0000000;font-family:Sans"
     id="text2780" />
  <path
     d="M 239.90569,7.2639427 C 240.37964,7.2639499 240.73901,7.1597833 240.98381,6.9514427 C 241.22859,6.7431171 241.35099,6.4358257 241.35100,6.0295677 C 241.35099,5.6285348 241.22859,5.3238476 240.98381,5.1155052 C 240.73901,4.9019731 240.37964,4.7952023 239.90569,4.7951927 L 238.24162,4.7951927 L 238.24162,7.2639427 L 239.90569,7.2639427 M 240.00725,12.365505 C 240.61141,12.365507 241.06453,12.237903 241.36662,11.982693 C 241.67391,11.727487 241.82755,11.342071 241.82756,10.826443 C 241.82755,10.321238 241.67651,9.9436347 241.37444,9.6936302 C 241.07234,9.4384269 240.61662,9.3108228 240.00725,9.3108177 L 238.24162,9.3108177 L 238.24162,12.365505 L 240.00725,12.365505 M 242.80412,8.1701927 C 243.44995,8.3576988 243.94995,8.7040526 244.30412,9.2092552 C 244.65828,9.7144682 244.83536,10.334259 244.83537,11.068630 C 244.83536,12.193632 244.45515,13.032173 243.69475,13.584255 C 242.93432,14.136339 241.77807,14.412380 240.22600,14.412380 L 235.23381,14.412380 L 235.23381,2.7483177 L 239.74944,2.7483177 C 241.36922,2.7483294 242.54109,2.9931208 243.26506,3.4826927 C 243.99422,3.9722865 244.35880,4.7561399 244.35881,5.8342552 C 244.35880,6.4019716 244.22599,6.8863461 243.96037,7.2873802 C 243.69474,7.6832203 243.30932,7.9774908 242.80412,8.1701927"
     style="font-size:16.000000px;font-style:normal;font-variant:normal;font-weight:bold;font-stretch:normal;text-align:start;line-height:125.00000%;writing-mode:lr-tb;text-anchor:start;fill:#0000ff;fill-opacity:1.0000000;stroke:none;stroke-width:1.0000000px;stroke-linecap:butt;stroke-linejoin:miter;stroke-opacity:1.0000000;font-family:Sans"
     id="text2784" />
  <rect
     width="232.82378"
     height="15.239477"
     x="200.17163"
     y="96.966316"
     style="fill:#ff0000;stroke:#000000;stroke-width:1.0000000;stroke-miterlimit:4.0000000;stroke-dasharray:none;stroke-opacity:1.0000000"
     id="rect2857" />
  <rect
     width="15.430827"
     height="15.178197"
     x="433.07425"
     y="97.059441"
     style="fill:#0000ff;fill-rule:evenodd;stroke:#000000;stroke-width:1.0038873;stroke-linecap:butt;stroke-linejoin:miter;stroke-miterlimit:4.0000000;stroke-dasharray:none;stroke-opacity:1.0000000"
     id="rect2859" />
  <rect
     width="73.114067"
     height="15.667883"
     x="315.86206"
     y="146.85683"
     style="fill:#0000ff;fill-rule:evenodd;stroke:#000000;stroke-width:0.99240446;stroke-linecap:butt;stroke-linejoin:miter;stroke-miterlimit:4.0000000;stroke-dasharray:none;stroke-opacity:1.0000000"
     id="rect2861" />
  <rect
     width="115.17212"
     height="15.674650"
     x="200.66115"
     y="146.83199"
     style="fill:#ff0000;stroke:#000000;stroke-width:1.0000000;stroke-miterlimit:4.0000000;stroke-dasharray:none;stroke-opacity:1.0000000"
     id="rect2863" />
  <path
     d="M 89.698196,168.08500 L 84.995071,168.08500 L 84.252884,170.21000 L 81.229446,170.21000 L 85.549759,158.54594 L 89.135696,158.54594 L 93.456009,170.21000 L 90.432571,170.21000 L 89.698196,168.08500 M 85.745071,165.92094 L 88.940384,165.92094 L 87.346634,161.28032 L 85.745071,165.92094"
     style="font-size:16.000000px;font-style:normal;font-variant:normal;font-weight:bold;font-stretch:normal;text-align:start;line-height:125.00000%;writing-mode:lr-tb;text-anchor:start;fill:#ff0000;fill-opacity:1.0000000;stroke:none;stroke-width:1.0000000px;stroke-linecap:butt;stroke-linejoin:miter;stroke-opacity:1.0000000;font-family:Sans"
     id="text2865" />
  <path
     d="M 87.706161,104.17156 C 88.180113,104.17157 88.539488,104.06740 88.784286,103.85906 C 89.029071,103.65074 89.151466,103.34344 89.151474,102.93719 C 89.151466,102.53615 89.029071,102.23147 88.784286,102.02312 C 88.539488,101.80959 88.180113,101.70282 87.706161,101.70281 L 86.042099,101.70281 L 86.042099,104.17156 L 87.706161,104.17156 M 87.807724,109.27312 C 88.411884,109.27313 88.865008,109.14552 89.167099,108.89031 C 89.474383,108.63511 89.628028,108.24969 89.628036,107.73406 C 89.628028,107.22886 89.476987,106.85125 89.174911,106.60125 C 88.872821,106.34605 88.417092,106.21844 87.807724,106.21844 L 86.042099,106.21844 L 86.042099,109.27312 L 87.807724,109.27312 M 90.604599,105.07781 C 91.250423,105.26532 91.750422,105.61167 92.104599,106.11687 C 92.458755,106.62209 92.635838,107.24188 92.635849,107.97625 C 92.635838,109.10125 92.255630,109.93979 91.495224,110.49187 C 90.734798,111.04396 89.578549,111.32000 88.026474,111.32000 L 83.034286,111.32000 L 83.034286,99.655940 L 87.549911,99.655940 C 89.169696,99.655950 90.341569,99.900740 91.065536,100.39031 C 91.794693,100.87991 92.159276,101.66376 92.159286,102.74187 C 92.159276,103.30959 92.026464,103.79397 91.760849,104.19500 C 91.495214,104.59084 91.109798,104.88511 90.604599,105.07781"
     style="font-size:16.000000px;font-style:normal;font-variant:normal;font-weight:bold;font-stretch:normal;text-align:start;line-height:125.00000%;writing-mode:lr-tb;text-anchor:start;fill:#0000ff;fill-opacity:1.0000000;stroke:none;stroke-width:1.0000000px;stroke-linecap:butt;stroke-linejoin:miter;stroke-opacity:1.0000000;font-family:Sans"
     id="text2869" />
</svg>
